<svg width="161" height="161" viewBox="0 0 161 161" fill="none" xmlns="http://www.w3.org/2000/svg">
<path d="M119.286 98.0637V92.941H114.895V49.7637H108.309V54.8864L83.4272 74.1909M51.2273 97.3319V92.941H62.2045L80.134 78.3046M63.6682 106.114H107.577M83.4272 74.1909L60.7409 61.4728V59.2773L33.6637 43.9091V59.2773L46.1045 67.3273L54.1545 63.6682L80.134 78.3046M83.4272 74.1909L88.1544 76.841M88.1544 76.841L109.041 88.55V59.2773L88.1544 76.841ZM80.134 78.3046L84.031 80.5M84.031 80.5L106.114 92.941H69.5227L84.031 80.5Z" stroke="black" stroke-width="2"/>
<circle cx="54.1545" cy="107.577" r="9.97728" stroke="black" stroke-width="2"/>
<circle cx="117.091" cy="107.577" r="9.97728" stroke="black" stroke-width="2"/>
<circle cx="80.5" cy="80.5" r="79.5" stroke="black" stroke-width="2"/>
</svg>
