<svg width="163" height="163" viewBox="0 0 163 163" fill="none" xmlns="http://www.w3.org/2000/svg">
<path d="M162 81.5C162 125.959 125.959 162 81.5 162C37.0411 162 1 125.959 1 81.5C1 37.0411 37.0411 1 81.5 1C125.959 1 162 37.0411 162 81.5Z" stroke="black" stroke-width="2"/>
<path d="M112.932 54.732L117.2 59L126 37L104 45.8L108.268 50.068L100.26 58.076C77.028 37.704 43.72 45.536 42.268 45.8L38 46.944L40.2 55.48L43.676 54.6L73.728 84.608L59.736 98.6H51.2L38 111.8L46.8 116.2L51.2 125L64.4 111.8V103.264L78.392 89.272L108.4 119.324L107.564 122.8L116.056 125L117.2 120.732C117.464 119.28 125.296 85.972 104.924 62.74L112.932 54.732ZM49 53.632C58.02 52.4 78.832 51.432 94.012 64.324L76.808 81.528L49 53.632ZM109.368 114L81.472 86.192L98.676 68.988C111.568 84.168 110.6 104.98 109.368 114Z" stroke="black" stroke-width="2"/>
</svg>
