<svg width="161" height="161" viewBox="0 0 161 161" fill="none" xmlns="http://www.w3.org/2000/svg">
<circle cx="80.5" cy="80.5" r="79.5" stroke="black" stroke-width="2"/>
<path d="M62.5517 92.3324L45.1034 75.931H42.069L42.8276 78.9655L59.5172 100.207L80.7586 114.621H83.7931L83.0345 111.586L67.1034 96.611M62.5517 92.3324L72.4138 84.8903L82.2759 77.4483M62.5517 92.3324L63.1207 92.8672M82.2759 77.4483L67.1034 96.611M82.2759 77.4483L64.8276 94.4717M82.2759 77.4483L63.6897 93.402M82.2759 77.4483L65.9655 95.5414M82.2759 77.4483L63.1207 92.8672M82.2759 77.4483L64.2586 93.9369M82.2759 77.4483L65.3966 95.0065M82.2759 77.4483L66.5345 96.0762M67.1034 96.611L66.5345 96.0762M71.6552 100.89L113.379 58.4827L124 38L101.241 47.8621L58.7586 88.0689M64.8276 94.4717L64.2586 93.9369M64.8276 94.4717L65.3966 95.0065M63.6897 93.402L63.1207 92.8672M63.6897 93.402L64.2586 93.9369M65.9655 95.5414L65.3966 95.0065M65.9655 95.5414L66.5345 96.0762M54.9655 95.6551L63.3103 104L45.1034 122.207H36V113.103L54.9655 95.6551Z" stroke="black" stroke-width="2"/>
</svg>
